<svg xmlns="http://www.w3.org/2000/svg" width="111.78" height="133.999" viewBox="0 0 111.78 133.999">
  <g id="confused" transform="translate(-42.449 -0.001)">
    <path id="Path_10" data-name="Path 10" d="M111.252,375.5H116c8.531-10.94,40.4-4.449,30.021,32.173H81.231C70.849,371.047,102.721,364.557,111.252,375.5Z" transform="translate(-27.113 -273.669)" fill="#2b2d42"/>
    <path id="Path_11" data-name="Path 11" d="M245.219,371.319c9.613,2.463,18.628,12.239,14.721,31.756-.29,1.447-.663,2.992-1.117,4.595h9.787C277.09,377.753,257.374,367.944,245.219,371.319Z" transform="translate(-149.701 -273.669)" fill="#252634"/>
    <path id="Path_12" data-name="Path 12" d="M183.2,358.631h0a9.787,9.787,0,0,0,9.787-9.787V336.732H173.417v12.113A9.787,9.787,0,0,0,183.2,358.631Z" transform="translate(-96.691 -248.603)" fill="#f6bb93"/>
    <path id="Path_13" data-name="Path 13" d="M173.417,346.389A62.569,62.569,0,0,0,192.99,347.5v-10.77H173.417v9.656Z" transform="translate(-96.691 -248.603)" fill="#e49775"/>
    <g id="Group_4" data-name="Group 4" transform="translate(44.609 51.537)">
      <path id="Path_14" data-name="Path 14" d="M58.97,213.454H69.907V196.915H58.97a8.269,8.269,0,0,0-8.269,8.269h0A8.269,8.269,0,0,0,58.97,213.454Z" transform="translate(-50.701 -196.915)" fill="#f6bb93"/>
      <path id="Path_15" data-name="Path 15" d="M308.474,213.454H297.538V196.915h10.936a8.269,8.269,0,0,1,8.269,8.269h0A8.269,8.269,0,0,1,308.474,213.454Z" transform="translate(-232.936 -196.915)" fill="#f6bb93"/>
    </g>
    <path id="Path_16" data-name="Path 16" d="M57.081,64.8C55.042,55.971,52.028,44.2,50.67,38.465c-8.735-7.584-10.542-23.614-5.261-35.008a2.772,2.772,0,0,1,4.264-.991c3.471,2.821,10.319,5.5,23.119.8,24.928-9.143,45.92,3.167,47.125,9.47,1.348,0,7.894.928,7.894,7.365,0,5.476-9,34.639-12.879,44.7H57.081Z" transform="translate(0 0)" fill="#14140d"/>
    <path id="Path_17" data-name="Path 17" d="M248.719,12.735C247.773,7.782,234.6-.881,216.91.074c13.354.812,22.884,8.225,23.643,12.662,1.206,0,7.062.928,7.062,7.365,0,5.476-8.05,34.639-11.521,44.7h7.641c3.88-10.059,12.879-39.223,12.879-44.7C256.614,13.663,250.067,12.735,248.719,12.735Z" transform="translate(-128.801 0)"/>
    <path id="Path_18" data-name="Path 18" d="M92.978,155.05c0,21.779,61.678,21.779,61.678,0,0-12.479-1.669-33.609-5.306-41.822a12.005,12.005,0,0,0-4.277-4.869,7.888,7.888,0,0,0-4.049-1.216,10.784,10.784,0,0,0-4.583,1.216c-3.936,1.86-7.908,5.2-12.624,5.2s-8.687-3.339-12.624-5.2a10.783,10.783,0,0,0-4.583-1.216,7.886,7.886,0,0,0-4.049,1.216,12.019,12.019,0,0,0-4.286,4.878C94.653,121.4,92.978,142.334,92.978,155.05Z" transform="translate(-37.304 -79.101)" fill="#f6bb93"/>
    <path id="Path_19" data-name="Path 19" d="M230.558,113.227a12.005,12.005,0,0,0-4.277-4.869,7.888,7.888,0,0,0-4.049-1.216,9.4,9.4,0,0,0-3.341.685,8.216,8.216,0,0,1,.891.531,11.645,11.645,0,0,1,3.744,4.869c3.183,8.213,4.644,29.343,4.644,41.823,0,10.406-12.325,15.84-25.2,16.3,16.072.5,32.891-4.929,32.891-16.3C235.864,142.57,234.194,121.441,230.558,113.227Z" transform="translate(-118.512 -79.101)" fill="#e49775"/>
    <g id="Group_5" data-name="Group 5" transform="translate(69.761 53.422)">
      <path id="Path_20" data-name="Path 20" d="M261.39,211.309a2.022,2.022,0,0,1-2.022-2.022v-3.146a2.022,2.022,0,0,1,4.044,0v3.146A2.022,2.022,0,0,1,261.39,211.309Z" transform="translate(-229.908 -204.119)" fill="#243b5d"/>
      <path id="Path_21" data-name="Path 21" d="M148.825,211.309a2.022,2.022,0,0,1-2.022-2.022v-3.146a2.022,2.022,0,1,1,4.044,0v3.146A2.022,2.022,0,0,1,148.825,211.309Z" transform="translate(-146.803 -204.119)" fill="#243b5d"/>
    </g>
    <path id="Path_22" data-name="Path 22" d="M246.5,180.9a10.689,10.689,0,0,1-6.238-1.9,2.022,2.022,0,0,1,2.375-3.273,7.114,7.114,0,0,0,7.725,0,2.022,2.022,0,1,1,2.376,3.273A10.689,10.689,0,0,1,246.5,180.9Z" transform="translate(-145.425 -129.446)" fill="#243b5d"/>
    <path id="Path_23" data-name="Path 23" d="M140.269,180.9a2.015,2.015,0,0,1-1.186-.386,7.115,7.115,0,0,0-7.725,0,2.022,2.022,0,0,1-2.375-3.273,11.173,11.173,0,0,1,12.476,0,2.022,2.022,0,0,1-1.19,3.659Z" transform="translate(-63.269 -129.447)" fill="#243b5d"/>
    <path id="Path_24" data-name="Path 24" d="M344.476,11.216a19.114,19.114,0,0,0-5.4,37.811,14.069,14.069,0,0,1-3.441,4.995A1.026,1.026,0,0,0,336.4,55.8a13.994,13.994,0,0,0,11.239-7.127,19.117,19.117,0,0,0-3.159-37.455Z" transform="translate(-207.458 -8.21)" fill="#31373a"/>
    <path id="Path_25" data-name="Path 25" d="M378.894,11.216a18.929,18.929,0,0,0-3.725-.007l.079.007c8.8,1.071,15.135,10.637,14.121,21.222-.764,7.974-5.482,14.226-11.509,16.233a11.985,11.985,0,0,1-7.74,6.868l-.051.012a1,1,0,0,0,.745.248,13.994,13.994,0,0,0,11.239-7.127,19.117,19.117,0,0,0-3.159-37.455Z" transform="translate(-241.876 -8.21)" fill="#1d2123"/>
    <path id="Path_26" data-name="Path 26" d="M112.119,478.03V468.01a2.022,2.022,0,1,1,4.044,0v10.02Zm51.659,0V468.01a2.022,2.022,0,0,0-4.044,0v10.02Z" transform="translate(-51.436 -344.03)" fill="#2a1010"/>
    <path id="Path_27" data-name="Path 27" d="M300.417,468.506a2.021,2.021,0,0,0-1.2-1.846,51.343,51.343,0,0,1-2.022,11.866h3.221v-10.02Z" transform="translate(-188.075 -344.526)" fill="#211c1c"/>
    <g id="Group_6" data-name="Group 6" transform="translate(128.93 9.516)">
      <path id="Path_28" data-name="Path 28" d="M386.938,119.352a2.022,2.022,0,0,1-2.022-2.022v-.27a2.022,2.022,0,0,1,4.044,0v.27A2.022,2.022,0,0,1,386.938,119.352Z" transform="translate(-381.767 -94.446)" fill="#fff"/>
      <path id="Path_29" data-name="Path 29" d="M378.054,55.6a2.022,2.022,0,0,1-2.022-2.022V50.009a3.111,3.111,0,0,1,3.107-3.107h.754a3.249,3.249,0,0,0,3.243-3.46,3.25,3.25,0,0,0-6.317-.844,2.022,2.022,0,0,1-3.826-1.312,7.294,7.294,0,0,1,14.18,1.9,7.233,7.233,0,0,1-1.963,5.456,7.325,7.325,0,0,1-5.133,2.3v2.631A2.022,2.022,0,0,1,378.054,55.6Z" transform="translate(-372.882 -36.359)" fill="#fff"/>
    </g>
    <path id="Path_30" data-name="Path 30" d="M12.942,6.3a2.016,2.016,0,0,1-1.43-.592,5.705,5.705,0,0,0-8.06,0,2.022,2.022,0,0,1-2.86-2.86,9.755,9.755,0,0,1,13.779,0A2.022,2.022,0,0,1,12.942,6.3Z" transform="translate(100.652 76.314) rotate(159)" fill="#243b5d"/>
  </g>
</svg>
