<svg id="support" xmlns="http://www.w3.org/2000/svg" width="294.842" height="294.842" viewBox="0 0 294.842 294.842">
  <path id="Path_1" data-name="Path 1" d="M191.312,64.57c0,19.012,30.772,34.4,68.8,34.4V94.054a54.054,54.054,0,1,0-108.109,0C173.73,94.054,191.312,80.865,191.312,64.57Z" transform="translate(-58.633 -15.43)" fill="#c600ff"/>
  <path id="Path_2" data-name="Path 2" d="M215.195,183.195h-2.147a55.443,55.443,0,0,1-5.233,2.074,54.915,54.915,0,0,0,5.233-2.074,53.906,53.906,0,0,0,31.632-49.14v4.914h7.371a17.2,17.2,0,0,0,0-34.4h-7.371V114.4c-38.025,0-68.8-15.386-68.8-34.4,0,16.295-17.582,29.484-39.312,29.484V104.57H129.2a17.2,17.2,0,0,0,0,34.4h7.371v-4.914a54.021,54.021,0,0,0,31.632,49.14,55.443,55.443,0,0,0,5.233,2.074,54.918,54.918,0,0,1-5.233-2.074h-2.147l24.57,49.14Zm-17.882,4.457c1.646-.206,3.278-.462,4.87-.816C200.59,187.195,198.959,187.445,197.312,187.652Zm5.322-.929c1.744-.4,3.464-.875,5.145-1.44C206.1,185.848,204.379,186.32,202.634,186.723Zm-29.16-1.44c1.676.565,3.4,1.037,5.145,1.44C176.87,186.32,175.15,185.848,173.474,185.283Zm5.587,1.558c1.6.354,3.229.6,4.87.816C182.29,187.445,180.659,187.195,179.062,186.841Zm11.563,1.268a53.925,53.925,0,0,0,5.808-.319,52.971,52.971,0,0,1-11.617,0A53.926,53.926,0,0,0,190.624,188.109Z" transform="translate(-43.204 -30.86)" fill="#fceade"/>
  <path id="Path_3" data-name="Path 3" d="M80.57,316.8a19.657,19.657,0,0,1,19.656-19.656h68.8L144.453,248H124.8A68.8,68.8,0,0,0,56,316.8v68.8H80.57Z" transform="translate(-21.602 -95.665)" fill="#b800ff"/>
  <path id="Path_4" data-name="Path 4" d="M253.249,328H115.656A19.657,19.657,0,0,0,96,347.656v68.8H272.905v-68.8A19.657,19.657,0,0,0,253.249,328Zm-68.8,58.968a14.742,14.742,0,1,1,14.742-14.742A14.741,14.741,0,0,1,184.453,386.968Z" transform="translate(-37.032 -126.525)" fill="#fff"/>
  <circle id="Ellipse_1" data-name="Ellipse 1" cx="14.5" cy="14.5" r="14.5" transform="translate(132.842 231)" fill="#fceade"/>
  <path id="Path_5" data-name="Path 5" d="M259.656,297.14H308.8A19.657,19.657,0,0,1,328.453,316.8v68.8h24.57V316.8a68.8,68.8,0,0,0-68.8-68.8H264.57L240,297.14Z" transform="translate(-92.579 -95.665)" fill="#7e00ff"/>
  <g id="Group_1" data-name="Group 1">
    <path id="Path_6" data-name="Path 6" d="M198.742,161.828a4.919,4.919,0,0,1,4.914,4.914h9.828a14.742,14.742,0,1,0-29.484,0h9.828A4.919,4.919,0,0,1,198.742,161.828Z" transform="translate(-70.977 -58.633)" fill="#2b2d42"/>
    <path id="Path_7" data-name="Path 7" d="M262.742,161.828a4.919,4.919,0,0,1,4.914,4.914h9.828a14.742,14.742,0,1,0-29.484,0h9.828A4.919,4.919,0,0,1,262.742,161.828Z" transform="translate(-95.665 -58.633)" fill="#2b2d42"/>
    <path id="Path_8" data-name="Path 8" d="M227.656,368a19.656,19.656,0,1,0,19.656,19.656A19.676,19.676,0,0,0,227.656,368Zm0,29.484a9.828,9.828,0,1,1,9.828-9.828A9.838,9.838,0,0,1,227.656,397.484Z" transform="translate(-80.235 -141.955)" fill="#2b2d42"/>
    <path id="Path_9" data-name="Path 9" d="M265.358,221.131a73.794,73.794,0,0,0-73.71-73.71H186.3a59.167,59.167,0,0,0,4.953-4.914h5.312a24.6,24.6,0,0,0,24.57-24.57v-8.659a22.075,22.075,0,0,0-.059-36.772,73.661,73.661,0,0,0-147.3,0A22.1,22.1,0,0,0,86,113.023h3.346a58.866,58.866,0,0,0,19.209,34.4h-5.356a73.794,73.794,0,0,0-73.71,73.71v63.882H0v9.828H294.842v-9.828H265.358ZM147.421,162.163a58.7,58.7,0,0,0,15.189-2.054l-15.189,30.379-15.189-30.379A58.7,58.7,0,0,0,147.421,162.163Zm36.275-4.914L164.04,196.561h-8.668l19.656-39.312ZM211.3,117.937a14.714,14.714,0,0,1-12.772,14.541,58.44,58.44,0,0,0,6.968-19.455h3.346a21.333,21.333,0,0,0,2.457-.251Zm-2.457-14.742h-2.457V78.624h2.457a12.285,12.285,0,0,1,0,24.57ZM147.421,9.828a63.923,63.923,0,0,1,63.646,59.194,20.733,20.733,0,0,0-2.221-.226H205.5a58.892,58.892,0,0,0-116.158,0H86a20.732,20.732,0,0,0-2.221.226A63.923,63.923,0,0,1,147.421,9.828ZM196.556,78.5c-35.465-1.248-58.963-15.749-58.963-29.361a4.914,4.914,0,0,0-9.828,0c0,12.28-12.7,22.457-29.2,24.261a49.134,49.134,0,0,1,97.991,5.1ZM86,103.195a12.285,12.285,0,0,1,0-24.57h2.457v24.57Zm12.285,0V83.263c15.347-1.332,28.369-8.732,34.87-19.1,10.28,13.622,34.3,23.209,63.411,24.187v14.84a48.833,48.833,0,0,1-9.921,29.484H147.421v9.828h29.356a49.108,49.108,0,0,1-78.5-39.312Zm41.189,93.367H130.8l-19.656-39.312h8.668ZM39.312,221.131a63.9,63.9,0,0,1,60.919-63.73l19.582,39.16H78.624a24.6,24.6,0,0,0-24.57,24.57v63.882H39.312Zm24.57,63.882V221.131a14.76,14.76,0,0,1,14.742-14.742H216.217a14.76,14.76,0,0,1,14.742,14.742v63.882Zm176.905,0V221.131a24.6,24.6,0,0,0-24.57-24.57H175.028L194.61,157.4a63.9,63.9,0,0,1,60.919,63.73v63.882Z" fill="#2b2d42"/>
    <rect id="Rectangle_2" data-name="Rectangle 2" width="9" height="35" transform="translate(211.842 240)" fill="#2b2d42"/>
    <rect id="Rectangle_3" data-name="Rectangle 3" width="9" height="10" transform="translate(211.842 221)" fill="#2b2d42"/>
    <rect id="Rectangle_4" data-name="Rectangle 4" width="10" height="11" transform="translate(254.842 44)" fill="#2b2d42"/>
    <rect id="Rectangle_5" data-name="Rectangle 5" width="10" height="11" transform="translate(254.842 63)" fill="#2b2d42"/>
    <rect id="Rectangle_6" data-name="Rectangle 6" width="10" height="10" transform="translate(254.842 83)" fill="#2b2d42"/>
    <rect id="Rectangle_7" data-name="Rectangle 7" width="11" height="10" transform="translate(28.842 103)" fill="#2b2d42"/>
    <rect id="Rectangle_8" data-name="Rectangle 8" width="11" height="10" transform="translate(28.842 123)" fill="#2b2d42"/>
    <rect id="Rectangle_9" data-name="Rectangle 9" width="11" height="11" transform="translate(28.842 142)" fill="#2b2d42"/>
  </g>
</svg>
