<svg id="student" xmlns="http://www.w3.org/2000/svg" width="101.678" height="160.921" viewBox="0 0 101.678 160.921">
  <g id="Group_10" data-name="Group 10" transform="translate(0)">
    <path id="Path_53" data-name="Path 53" d="M199.271,104.431C201.146,40.251,193.211,0,151.729,0s-49.42,40.234-47.542,104.431Z" transform="translate(-100.89)" fill="#2d4456"/>
    <path id="Path_54" data-name="Path 54" d="M165.1,281.835H139.452c-14.224,0-26.838,6.234-34.716,15.85q.229,6.092.557,12.442h93.969q.327-6.354.557-12.442C191.942,288.069,179.328,281.835,165.1,281.835Z" transform="translate(-101.439 -193.255)" fill="#253847"/>
    <path id="Path_55" data-name="Path 55" d="M192.894,386.557H97.276l-3.03-3.03V362.512a39.106,39.106,0,0,1,12.86-29.035h75.957a39.106,39.106,0,0,1,12.86,29.035v21.014Z" transform="translate(-94.246 -228.666)" fill="#86dcff"/>
    <path id="Path_56" data-name="Path 56" d="M95.929,498.78h16.035l2.357-2.829,2.357,2.829h56.813l2.357-2.829,2.357,2.829h16.035a1.683,1.683,0,0,0,1.683-1.683V492.72H94.246V497.1A1.683,1.683,0,0,0,95.929,498.78Z" transform="translate(-94.246 -337.859)" fill="#56caed"/>
    <path id="Path_57" data-name="Path 57" d="M201.328,334.256l25.345-27.889-.168-2.846a39.107,39.107,0,0,0-13.545-2.405H189.7a39.114,39.114,0,0,0-13.427,2.362l.132,3.35Z" transform="translate(-150.489 -206.476)" fill="#e4eef9"/>
    <path id="Path_58" data-name="Path 58" d="M167.267,308.773a39.1,39.1,0,0,0-3.955,1.709l1.042,4.481,28.089,30.6,28.375-30.918.757-4.166a39.1,39.1,0,0,0-3.954-1.709l-23.932,26.333a1.683,1.683,0,0,1-2.491,0Z" transform="translate(-141.605 -211.726)" fill="#d5e0f2"/>
    <path id="Path_59" data-name="Path 59" d="M239.08,352.51l7.131-7.846.624-3.717-1.857-10.179-5.9-3.03-5.9,3.03-1.857,10.18.624,3.717Z" transform="translate(-188.241 -224.73)" fill="#ff5876"/>
    <path id="Path_60" data-name="Path 60" d="M243.417,312.513h-11.8l-2.573-11.4H245.99Z" transform="translate(-186.68 -206.476)" fill="#e6485d"/>
    <path id="Path_61" data-name="Path 61" d="M245.747,374.812l-.921-5.046-6.51,7.163a1.683,1.683,0,0,1-2.491,0l-6.51-7.163-.921,5.046,8.676,15.607Z" transform="translate(-186.232 -253.549)" fill="#e6485d"/>
    <path id="Path_62" data-name="Path 62" d="M150.906,314.21a39.278,39.278,0,0,0-5.687,3.473l.387,3.455L176.3,354.913a5.049,5.049,0,0,0,7.474,0l31.027-34.14.054-3.09a39.3,39.3,0,0,0-5.687-3.473L181.2,344.985a1.571,1.571,0,0,1-2.326,0Z" transform="translate(-129.198 -215.454)" fill="#ffcf4d"/>
    <path id="Path_63" data-name="Path 63" d="M176.88,359.461a5.049,5.049,0,0,1-7.474,0l-31.081-34.2a39.247,39.247,0,0,0-3.161,2.582l34.242,37.677a5.049,5.049,0,0,0,7.474,0l34.241-37.677a39.315,39.315,0,0,0-3.161-2.582Z" transform="translate(-122.304 -223.033)" fill="#ffb629"/>
    <path id="Path_64" data-name="Path 64" d="M155.334,432.837v17.2l-2.357,3.03-2.357-3.03v-17.2a2.357,2.357,0,1,1,4.714,0Z" transform="translate(-132.902 -295.181)" fill="#4ea1f4"/>
    <path id="Path_65" data-name="Path 65" d="M150.62,492.72h4.714v6.06H150.62Z" transform="translate(-132.902 -337.859)" fill="#3292e0"/>
    <path id="Path_66" data-name="Path 66" d="M351.094,432.837v17.2l-2.357,3.03-2.357-3.03v-17.2a2.357,2.357,0,1,1,4.715,0Z" transform="translate(-267.135 -295.181)" fill="#4ea1f4"/>
    <path id="Path_67" data-name="Path 67" d="M346.38,492.72h4.715v6.06H346.38Z" transform="translate(-267.135 -337.859)" fill="#3292e0"/>
    <path id="Path_68" data-name="Path 68" d="M210.4,99.489l-3.254,9.372a5.05,5.05,0,0,1-4.77,3.393h-31.6a5.05,5.05,0,0,1-4.77-3.393l-3.311-9.536a1.572,1.572,0,0,0-2.893-.182l-5.044,10.184V130.2a31.821,31.821,0,1,0,63.642,0V110.481l-5.08-11.128A1.571,1.571,0,0,0,210.4,99.489Z" transform="translate(-135.738 -67.384)" fill="#ffe0cc"/>
    <path id="Path_69" data-name="Path 69" d="M186.577,222.052a31.821,31.821,0,0,1-31.821-31.821v6.06a31.821,31.821,0,0,0,63.642,0v-6.06A31.821,31.821,0,0,1,186.577,222.052Z" transform="translate(-135.738 -130.442)" fill="#ffceb3"/>
  </g>
  <g id="Group_11" data-name="Group 11" transform="translate(32.895 53.544)">
    <path id="Path_70" data-name="Path 70" d="M201.433,170.362a2.525,2.525,0,0,0-2.525,2.525v7.134a2.525,2.525,0,0,0,5.05,0v-7.134A2.525,2.525,0,0,0,201.433,170.362Z" transform="translate(-198.908 -170.362)" fill="#2d4456"/>
    <path id="Path_71" data-name="Path 71" d="M299.55,182.546a2.525,2.525,0,0,0,2.525-2.525v-7.134a2.525,2.525,0,1,0-5.05,0v7.134A2.525,2.525,0,0,0,299.55,182.546Z" transform="translate(-266.187 -170.362)" fill="#2d4456"/>
    <path id="Path_72" data-name="Path 72" d="M229.8,239.078c8.976,0,11.689-6.308,11.808-6.594v0a2.525,2.525,0,1,0-4.66-1.947c-.128.27-1.767,3.494-7.149,3.494s-7.02-3.222-7.149-3.493a2.525,2.525,0,1,0-4.66,1.947v0C218.106,232.77,220.82,239.078,229.8,239.078Z" transform="translate(-211.852 -210.553)" fill="#ff5876"/>
  </g>
</svg>
