<svg id="facebook" xmlns="http://www.w3.org/2000/svg" width="35.047" height="35.047" viewBox="0 0 35.047 35.047">
  <path id="Path_80" data-name="Path 80" d="M291.295,508.668q-.219.036-.44.066Q291.076,508.7,291.295,508.668Zm0,0" transform="translate(-270.946 -473.849)"/>
  <path id="Path_81" data-name="Path 81" d="M299.549,507.793l-.209.037Zm0,0" transform="translate(-278.849 -473.034)"/>
  <path id="Path_82" data-name="Path 82" d="M278.125,510.34q-.256.029-.515.051Q277.868,510.369,278.125,510.34Zm0,0" transform="translate(-258.607 -475.407)"/>
  <path id="Path_83" data-name="Path 83" d="M286.693,509.738l-.247.031Zm0,0" transform="translate(-266.838 -474.846)"/>
  <path id="Path_84" data-name="Path 84" d="M306.849,506.41l-.185.039Zm0,0" transform="translate(-285.672 -471.746)"/>
  <path id="Path_85" data-name="Path 85" d="M324.634,502.113l-.149.041Zm0,0" transform="translate(-302.273 -467.743)"/>
  <path id="Path_86" data-name="Path 86" d="M319.222,503.543l-.163.042Zm0,0" transform="translate(-297.219 -469.075)"/>
  <path id="Path_87" data-name="Path 87" d="M312.239,505.254l-.173.039Zm0,0" transform="translate(-290.705 -470.669)"/>
  <path id="Path_88" data-name="Path 88" d="M273.757,511.09l-.277.021Zm0,0" transform="translate(-254.76 -476.105)"/>
  <path id="Path_89" data-name="Path 89" d="M35.047,17.523A17.523,17.523,0,1,0,17.523,35.047c.1,0,.205,0,.308,0V21.4H14.067V17.014h3.765V13.785C17.832,10.041,20.117,8,23.458,8a30.992,30.992,0,0,1,3.375.172v3.913h-2.3c-1.817,0-2.169.864-2.169,2.131v2.794h4.345L26.139,21.4H22.361V34.37A17.533,17.533,0,0,0,35.047,17.523Zm0,0" fill="#a0f"/>
  <path id="Path_90" data-name="Path 90" d="M265.44,511.43c-.182.012-.366.021-.549.027C265.074,511.451,265.257,511.442,265.44,511.43Zm0,0" transform="translate(-246.758 -476.422)"/>
  <path id="Path_91" data-name="Path 91" d="M260.795,511.836l-.291.007Zm0,0" transform="translate(-242.672 -476.8)"/>
</svg>
