<svg id="instagram" xmlns="http://www.w3.org/2000/svg" width="35.047" height="35.047" viewBox="0 0 35.047 35.047">
  <path id="Path_92" data-name="Path 92" d="M213.708,210.354A3.354,3.354,0,1,1,210.354,207,3.354,3.354,0,0,1,213.708,210.354Zm0,0" transform="translate(-192.831 -192.831)" fill="#a0f"/>
  <path id="Path_93" data-name="Path 93" d="M151.578,137.8a3.332,3.332,0,0,0-1.91-1.91,5.568,5.568,0,0,0-1.868-.346c-1.061-.048-1.379-.059-4.066-.059s-3.005.01-4.066.059a5.571,5.571,0,0,0-1.868.347,3.334,3.334,0,0,0-1.91,1.91,5.569,5.569,0,0,0-.346,1.868c-.048,1.061-.059,1.379-.059,4.066s.01,3,.059,4.066a5.567,5.567,0,0,0,.346,1.868,3.332,3.332,0,0,0,1.91,1.91,5.561,5.561,0,0,0,1.869.347c1.061.048,1.379.059,4.066.059s3.005-.01,4.066-.059a5.56,5.56,0,0,0,1.868-.347,3.332,3.332,0,0,0,1.91-1.91,5.572,5.572,0,0,0,.347-1.868c.048-1.061.059-1.379.059-4.066s-.01-3.005-.059-4.066A5.561,5.561,0,0,0,151.578,137.8Zm-7.844,11.1a5.167,5.167,0,1,1,5.167-5.167A5.167,5.167,0,0,1,143.734,148.9Zm5.371-9.331a1.208,1.208,0,1,1,1.208-1.208A1.208,1.208,0,0,1,149.105,139.574Zm0,0" transform="translate(-126.211 -126.214)" fill="#a0f"/>
  <path id="Path_94" data-name="Path 94" d="M17.523,0A17.523,17.523,0,1,0,35.047,17.523,17.525,17.525,0,0,0,17.523,0Zm10,21.672a7.382,7.382,0,0,1-.468,2.443,5.145,5.145,0,0,1-2.943,2.943,7.388,7.388,0,0,1-2.442.468c-1.073.049-1.416.061-4.149.061s-3.075-.012-4.149-.061a7.388,7.388,0,0,1-2.442-.468A5.145,5.145,0,0,1,7.99,24.114a7.381,7.381,0,0,1-.468-2.442c-.049-1.073-.061-1.416-.061-4.149s.011-3.075.061-4.148a7.383,7.383,0,0,1,.467-2.443,5.149,5.149,0,0,1,2.943-2.943,7.389,7.389,0,0,1,2.443-.468c1.073-.049,1.416-.061,4.149-.061s3.075.012,4.149.061a7.391,7.391,0,0,1,2.443.467,5.146,5.146,0,0,1,2.943,2.943,7.382,7.382,0,0,1,.468,2.443c.049,1.073.06,1.416.06,4.148S27.574,20.6,27.525,21.672Zm0,0" fill="#a0f"/>
</svg>
